<svg width="23" height="25" viewBox="0 0 23 25" fill="none" xmlns="http://www.w3.org/2000/svg">
<path d="M17.5436 12.3955L10.6819 19.2572C10.2822 19.657 9.99837 20.1578 9.86077 20.7062L9.32803 22.8344C9.27549 23.046 9.27859 23.2677 9.33703 23.4778C9.39547 23.6879 9.50725 23.8793 9.66153 24.0334C9.8158 24.1875 10.0073 24.2992 10.2175 24.3574C10.4276 24.4156 10.6493 24.4185 10.8609 24.3658L12.989 23.8345C13.5374 23.6969 14.0382 23.4131 14.4381 23.0134L21.2997 16.1517C21.7915 15.6521 22.0658 14.9784 22.0629 14.2774C22.0601 13.5764 21.7803 12.9049 21.2845 12.4093C20.7887 11.9137 20.1172 11.6342 19.4162 11.6316C18.7152 11.629 18.0416 11.9036 17.5421 12.3955M5.02777 0.96227C5.02777 0.773882 4.95293 0.593211 4.81972 0.46C4.68651 0.32679 4.50584 0.251953 4.31745 0.251953C4.12907 0.251953 3.94839 0.32679 3.81518 0.46C3.68197 0.593211 3.60714 0.773882 3.60714 0.96227V1.67259H2.89682C2.33166 1.67259 1.78964 1.8971 1.39001 2.29673C0.990379 2.69636 0.765869 3.23837 0.765869 3.80354V20.8511C0.765869 21.4163 0.990379 21.9583 1.39001 22.358C1.78964 22.7576 2.33166 22.9821 2.89682 22.9821H7.8733C7.88277 22.8201 7.90834 22.6558 7.95002 22.4891L8.48275 20.361C8.68228 19.5628 9.09472 18.8336 9.67609 18.2514L16.5377 11.3897C16.9049 11.0242 17.3377 10.7311 17.8135 10.526V3.80354C17.8135 3.23837 17.589 2.69636 17.1893 2.29673C16.7897 1.8971 16.2477 1.67259 15.6825 1.67259H14.9722V0.96227C14.9722 0.773882 14.8974 0.593211 14.7642 0.46C14.631 0.32679 14.4503 0.251953 14.2619 0.251953C14.0735 0.251953 13.8928 0.32679 13.7596 0.46C13.6264 0.593211 13.5516 0.773882 13.5516 0.96227V1.67259H9.99999V0.96227C9.99999 0.773882 9.92515 0.593211 9.79194 0.46C9.65873 0.32679 9.47806 0.251953 9.28967 0.251953C9.10129 0.251953 8.92061 0.32679 8.7874 0.46C8.65419 0.593211 8.57936 0.773882 8.57936 0.96227V1.67259H5.02777V0.96227ZM5.73809 7.35512H12.8413C13.0296 7.35512 13.2103 7.42996 13.3435 7.56317C13.4767 7.69638 13.5516 7.87705 13.5516 8.06544C13.5516 8.25383 13.4767 8.4345 13.3435 8.56771C13.2103 8.70092 13.0296 8.77576 12.8413 8.77576H5.73809C5.5497 8.77576 5.36903 8.70092 5.23582 8.56771C5.10261 8.4345 5.02777 8.25383 5.02777 8.06544C5.02777 7.87705 5.10261 7.69638 5.23582 7.56317C5.36903 7.42996 5.5497 7.35512 5.73809 7.35512ZM13.5516 12.3273C13.5516 12.5157 13.4767 12.6964 13.3435 12.8296C13.2103 12.9628 13.0296 13.0377 12.8413 13.0377H5.73809C5.5497 13.0377 5.36903 12.9628 5.23582 12.8296C5.10261 12.6964 5.02777 12.5157 5.02777 12.3273C5.02777 12.139 5.10261 11.9583 5.23582 11.8251C5.36903 11.6919 5.5497 11.617 5.73809 11.617H12.8413C13.0296 11.617 13.2103 11.6919 13.3435 11.8251C13.4767 11.9583 13.5516 12.139 13.5516 12.3273ZM5.73809 15.8789H8.57936C8.76774 15.8789 8.94842 15.9538 9.08163 16.087C9.21484 16.2202 9.28967 16.4009 9.28967 16.5892C9.28967 16.7776 9.21484 16.9583 9.08163 17.0915C8.94842 17.2247 8.76774 17.2996 8.57936 17.2996H5.73809C5.5497 17.2996 5.36903 17.2247 5.23582 17.0915C5.10261 16.9583 5.02777 16.7776 5.02777 16.5892C5.02777 16.4009 5.10261 16.2202 5.23582 16.087C5.36903 15.9538 5.5497 15.8789 5.73809 15.8789Z" fill="#0E7300"/>
</svg>
