<svg width="23" height="25" viewBox="0 0 23 25" fill="none" xmlns="http://www.w3.org/2000/svg">
<path d="M7.82639 20.6937C7.67711 21.2851 7.66732 21.9031 7.79777 22.4989C3.21599 21.8513 0.550293 18.6148 0.550293 15.459V14.5644C0.550293 13.8527 0.833027 13.1701 1.3363 12.6668C1.83957 12.1636 2.52215 11.8808 3.23388 11.8808H14.0094C14.0362 12.5159 14.2366 13.135 14.5962 13.6699H3.23388C2.99664 13.6699 2.76911 13.7641 2.60135 13.9319C2.4336 14.0996 2.33935 14.3272 2.33935 14.5644V15.459C2.33935 17.7006 4.28585 20.1105 7.82639 20.6937ZM9.49559 0.251953C10.8004 0.251953 12.0518 0.770299 12.9745 1.69296C13.8972 2.61562 14.4155 3.86702 14.4155 5.17186C14.4155 6.47671 13.8972 7.7281 12.9745 8.65077C12.0518 9.57343 10.8004 10.0918 9.49559 10.0918C8.19074 10.0918 6.93935 9.57343 6.01668 8.65077C5.09402 7.7281 4.57567 6.47671 4.57567 5.17186C4.57567 3.86702 5.09402 2.61562 6.01668 1.69296C6.93935 0.770299 8.19074 0.251953 9.49559 0.251953ZM9.49559 2.04101C8.66523 2.04101 7.86889 2.37087 7.28174 2.95802C6.69459 3.54517 6.36473 4.34151 6.36473 5.17186C6.36473 6.00222 6.69459 6.79856 7.28174 7.38571C7.86889 7.97286 8.66523 8.30272 9.49559 8.30272C10.3259 8.30272 11.1223 7.97286 11.7094 7.38571C12.2966 6.79856 12.6264 6.00222 12.6264 5.17186C12.6264 4.34151 12.2966 3.54517 11.7094 2.95802C11.1223 2.37087 10.3259 2.04101 9.49559 2.04101ZM15.9076 11.1312L16.4139 9.78942C16.8755 8.57286 18.3139 7.97174 19.5268 8.48878L20.221 8.78576C21.0672 9.14715 21.7685 9.80195 21.9152 10.6822C22.7328 15.5573 18.5017 22.4917 13.6319 24.2611C12.7517 24.5796 11.7999 24.3327 11.0467 23.821L10.4277 23.4006C10.1735 23.2294 9.95957 23.0051 9.80052 22.7432C9.64147 22.4813 9.54113 22.188 9.50644 21.8836C9.47174 21.5791 9.50351 21.2708 9.59955 20.9798C9.69559 20.6888 9.85361 20.4221 10.0627 20.1982L11.0378 19.1122C11.2668 18.86 11.559 18.6735 11.8842 18.5719C12.2094 18.4703 12.5558 18.4573 12.8876 18.5343L15.0792 19.0532C16.817 17.9678 17.7485 16.4411 17.8737 14.4732L16.303 12.9346C16.0684 12.7053 15.9059 12.4124 15.8357 12.092C15.7654 11.7716 15.7904 11.4376 15.9076 11.1312Z" fill="#0E7300"/>
</svg>
