<svg width="25" height="25" viewBox="0 0 25 25" fill="none" xmlns="http://www.w3.org/2000/svg">
<path d="M21.155 5.54688H3.98934C2.63501 5.54688 1.53711 6.64478 1.53711 7.99911V21.4864C1.53711 22.8407 2.63501 23.9386 3.98934 23.9386H21.155C22.5093 23.9386 23.6072 22.8407 23.6072 21.4864V7.99911C23.6072 6.64478 22.5093 5.54688 21.155 5.54688Z" stroke="#0E7300" stroke-width="2"/>
<path d="M1.53711 10.4513C1.53711 8.13889 1.53711 6.98388 2.25561 6.26538C2.97412 5.54687 4.12912 5.54688 6.44158 5.54688H18.7027C21.0152 5.54688 22.1702 5.54687 22.8887 6.26538C23.6072 6.98388 23.6072 8.13889 23.6072 10.4513H1.53711Z" fill="#0E7300"/>
<path d="M6.44153 1.86816V5.54651M18.7027 1.86816V5.54651" stroke="#0E7300" stroke-width="2" stroke-linecap="round"/>
<path d="M10.7329 12.9033H7.05459C6.716 12.9033 6.44153 13.1778 6.44153 13.5164V14.7425C6.44153 15.0811 6.716 15.3556 7.05459 15.3556H10.7329C11.0715 15.3556 11.346 15.0811 11.346 14.7425V13.5164C11.346 13.1778 11.0715 12.9033 10.7329 12.9033Z" fill="#0E7300"/>
<path d="M10.7329 17.8076H7.05459C6.716 17.8076 6.44153 18.0821 6.44153 18.4207V19.6468C6.44153 19.9854 6.716 20.2599 7.05459 20.2599H10.7329C11.0715 20.2599 11.346 19.9854 11.346 19.6468V18.4207C11.346 18.0821 11.0715 17.8076 10.7329 17.8076Z" fill="#0E7300"/>
<path d="M18.0896 12.9033H14.4113C14.0727 12.9033 13.7982 13.1778 13.7982 13.5164V14.7425C13.7982 15.0811 14.0727 15.3556 14.4113 15.3556H18.0896C18.4282 15.3556 18.7027 15.0811 18.7027 14.7425V13.5164C18.7027 13.1778 18.4282 12.9033 18.0896 12.9033Z" fill="#0E7300"/>
<path d="M18.0896 17.8076H14.4113C14.0727 17.8076 13.7982 18.0821 13.7982 18.4207V19.6468C13.7982 19.9854 14.0727 20.2599 14.4113 20.2599H18.0896C18.4282 20.2599 18.7027 19.9854 18.7027 19.6468V18.4207C18.7027 18.0821 18.4282 17.8076 18.0896 17.8076Z" fill="#0E7300"/>
</svg>
