<svg width="34" height="34" viewBox="0 0 34 34" fill="none" xmlns="http://www.w3.org/2000/svg">
<mask id="path-1-inside-1_292_849" fill="white">
<path d="M0.519531 10.4443C0.519531 4.92149 4.99668 0.444336 10.5195 0.444336H23.5725C29.0954 0.444336 33.5725 4.92149 33.5725 10.4443V23.4973C33.5725 29.0202 29.0954 33.4973 23.5725 33.4973H10.5195C4.99669 33.4973 0.519531 29.0202 0.519531 23.4973V10.4443Z"/>
</mask>
<path d="M0.519531 10.4443C0.519531 4.92149 4.99668 0.444336 10.5195 0.444336H23.5725C29.0954 0.444336 33.5725 4.92149 33.5725 10.4443V23.4973C33.5725 29.0202 29.0954 33.4973 23.5725 33.4973H10.5195C4.99669 33.4973 0.519531 29.0202 0.519531 23.4973V10.4443Z" fill="#9E1200"/>
<path d="M0.519531 0.444336H33.5725H0.519531ZM33.5725 23.4973C33.5725 29.5725 28.6477 34.4973 22.5725 34.4973H11.5195C5.4444 34.4973 0.519531 29.5725 0.519531 23.4973C0.519531 28.4679 4.99668 32.4973 10.5195 32.4973H23.5725C29.0954 32.4973 33.5725 28.4679 33.5725 23.4973ZM0.519531 33.4973V0.444336V33.4973ZM33.5725 0.444336V33.4973V0.444336Z" fill="black" mask="url(#path-1-inside-1_292_849)"/>
<path d="M17.0468 7.84766C14.5691 7.84766 14.2581 7.85851 13.2851 7.90276C12.3138 7.94728 11.6508 8.10101 11.0708 8.32662C10.4707 8.55963 9.96169 8.87136 9.45463 9.37861C8.94711 9.88577 8.63537 10.3947 8.40163 10.9946C8.17538 11.5748 8.02147 12.2381 7.97777 13.2089C7.93426 14.182 7.92285 14.4931 7.92285 16.9709C7.92285 19.4486 7.9338 19.7586 7.97796 20.7317C8.02266 21.703 8.17638 22.3659 8.40182 22.946C8.635 23.5461 8.94674 24.0551 9.45399 24.5622C9.96096 25.0697 10.4699 25.3821 11.0696 25.6152C11.6501 25.8408 12.3132 25.9945 13.2842 26.039C14.2574 26.0833 14.5681 26.0941 17.0457 26.0941C19.5237 26.0941 19.8337 26.0833 20.8067 26.039C21.778 25.9945 22.4417 25.8408 23.0222 25.6152C23.622 25.3821 24.1303 25.0697 24.6372 24.5622C25.1447 24.0551 25.4563 23.5461 25.6902 22.9463C25.9144 22.3659 26.0684 21.7028 26.114 20.7319C26.1577 19.7588 26.1691 19.4486 26.1691 16.9709C26.1691 14.4931 26.1577 14.1822 26.114 13.2091C26.0684 12.2378 25.9144 11.5749 25.6902 10.9949C25.4563 10.3947 25.1447 9.88577 24.6372 9.37861C24.1297 8.87118 23.6222 8.55944 23.0216 8.32671C22.44 8.10101 21.7767 7.94719 20.8055 7.90276C19.8323 7.85851 19.5225 7.84766 17.044 7.84766H17.0468ZM16.2284 9.49174C16.4713 9.49137 16.7424 9.49174 17.0468 9.49174C19.4828 9.49174 19.7714 9.5005 20.7334 9.5442C21.6229 9.58488 22.1057 9.7335 22.4273 9.8584C22.8531 10.0237 23.1566 10.2214 23.4757 10.5408C23.795 10.8601 23.9926 11.1642 24.1584 11.59C24.2833 11.9111 24.4321 12.3939 24.4726 13.2834C24.5163 14.2452 24.5258 14.534 24.5258 16.9688C24.5258 19.4036 24.5163 19.6925 24.4726 20.6542C24.4319 21.5437 24.2833 22.0265 24.1584 22.3477C23.9931 22.7735 23.795 23.0766 23.4757 23.3958C23.1564 23.7151 22.8532 23.9127 22.4273 24.0781C22.106 24.2035 21.6229 24.3518 20.7334 24.3925C19.7716 24.4362 19.4828 24.4457 17.0468 24.4457C14.6108 24.4457 14.322 24.4362 13.3603 24.3925C12.4708 24.3514 11.988 24.2028 11.6662 24.0779C11.2405 23.9125 10.9363 23.7149 10.617 23.3956C10.2977 23.0763 10.1001 22.7729 9.93432 22.347C9.80943 22.0257 9.66063 21.5429 9.62012 20.6534C9.57642 19.6917 9.56766 19.4028 9.56766 16.9665C9.56766 14.5302 9.57642 14.2429 9.62012 13.2811C9.66081 12.3916 9.80943 11.9088 9.93432 11.5872C10.0997 11.1615 10.2977 10.8574 10.6171 10.5381C10.9365 10.2188 11.2405 10.0211 11.6663 9.85539C11.9878 9.72994 12.4708 9.58169 13.3603 9.54082C14.2019 9.50278 14.5281 9.49137 16.2284 9.48946V9.49174ZM21.9167 11.0065C21.3123 11.0065 20.822 11.4965 20.822 12.101C20.822 12.7054 21.3123 13.1957 21.9167 13.1957C22.5212 13.1957 23.0115 12.7054 23.0115 12.101C23.0115 11.4965 22.5212 11.0062 21.9167 11.0062V11.0065ZM17.0468 12.2857C14.4595 12.2857 12.3617 14.3835 12.3617 16.9709C12.3617 19.5583 14.4595 21.6551 17.0468 21.6551C19.6342 21.6551 21.7313 19.5583 21.7313 16.9709C21.7313 14.3836 19.634 12.2857 17.0466 12.2857H17.0468ZM17.0468 13.9298C18.7263 13.9298 20.0879 15.2912 20.0879 16.9709C20.0879 18.6504 18.7263 20.012 17.0468 20.012C15.3673 20.012 14.0058 18.6504 14.0058 16.9709C14.0058 15.2912 15.3672 13.9298 17.0468 13.9298Z" fill="white"/>
</svg>
