<svg width="34" height="34" viewBox="0 0 34 34" fill="none" xmlns="http://www.w3.org/2000/svg">
<mask id="path-1-inside-1_292_846" fill="white">
<path d="M0.426758 10.4443C0.426758 4.92149 4.90391 0.444336 10.4268 0.444336H23.4797C29.0026 0.444336 33.4797 4.92149 33.4797 10.4443V23.4973C33.4797 29.0202 29.0026 33.4973 23.4797 33.4973H10.4268C4.90391 33.4973 0.426758 29.0202 0.426758 23.4973V10.4443Z"/>
</mask>
<path d="M0.426758 10.4443C0.426758 4.92149 4.90391 0.444336 10.4268 0.444336H23.4797C29.0026 0.444336 33.4797 4.92149 33.4797 10.4443V23.4973C33.4797 29.0202 29.0026 33.4973 23.4797 33.4973H10.4268C4.90391 33.4973 0.426758 29.0202 0.426758 23.4973V10.4443Z" fill="#FF0000"/>
<path d="M0.426758 0.444336H33.4797H0.426758ZM33.4797 23.4973C33.4797 29.5725 28.5549 34.4973 22.4797 34.4973H11.4268C5.35163 34.4973 0.426758 29.5725 0.426758 23.4973C0.426758 28.4679 4.90391 32.4973 10.4268 32.4973H23.4797C29.0026 32.4973 33.4797 28.4679 33.4797 23.4973ZM0.426758 33.4973V0.444336V33.4973ZM33.4797 0.444336V33.4973V0.444336Z" fill="black" mask="url(#path-1-inside-1_292_846)"/>
<path d="M12.6328 23.5473L23.9873 16.9707L12.6328 10.394V23.5473Z" fill="white"/>
</svg>
