<svg width="34" height="34" viewBox="0 0 34 34" fill="none" xmlns="http://www.w3.org/2000/svg">
<mask id="path-1-inside-1_292_841" fill="white">
<path d="M0.333984 10.4443C0.333984 4.92149 4.81114 0.444336 10.334 0.444336H23.387C28.9098 0.444336 33.387 4.92149 33.387 10.4443V23.4973C33.387 29.0202 28.9098 33.4973 23.387 33.4973H10.334C4.81114 33.4973 0.333984 29.0202 0.333984 23.4973V10.4443Z"/>
</mask>
<path d="M0.333984 10.4443C0.333984 4.92149 4.81114 0.444336 10.334 0.444336H23.387C28.9098 0.444336 33.387 4.92149 33.387 10.4443V23.4973C33.387 29.0202 28.9098 33.4973 23.387 33.4973H10.334C4.81114 33.4973 0.333984 29.0202 0.333984 23.4973V10.4443Z" fill="#3D5A98"/>
<path d="M0.333984 0.444336H33.387H0.333984ZM33.387 23.4973C33.387 29.5725 28.4621 34.4973 22.387 34.4973H11.334C5.25885 34.4973 0.333984 29.5725 0.333984 23.4973C0.333984 28.4679 4.81114 32.4973 10.334 32.4973H23.387C28.9098 32.4973 33.387 28.4679 33.387 23.4973ZM0.333984 33.4973V0.444336V33.4973ZM33.387 0.444336V33.4973V0.444336Z" fill="black" mask="url(#path-1-inside-1_292_841)"/>
<path d="M18.2232 26.8221V18.7881H20.9193L21.3225 15.6573H18.2232V13.6589C18.2232 12.7526 18.4757 12.1338 19.7746 12.1338H21.433V9.32897C20.6299 9.24543 19.8229 9.20564 19.0156 9.20976C16.628 9.20976 14.9837 10.6647 14.9837 13.3486V15.6573H12.2876V18.7881H14.9837V26.8221H18.2232Z" fill="white"/>
</svg>
